# xmcd
#
# Track frame offsets: 
#        150
#        28307
#        49808
#        74884
#        97579
#        116187
#        141958
#        166716
#        193195
#        223014
#        244835
#        267016
#        299580
#        322185
#
# Disc length: 4561 seconds
#
# Revision: 0
# Processed by: cddbd v1.5.2PL0 Copyright (c) Steve Scherf et al.
# Submitted via: ExactAudioCopy v0.99pb5
#
DISCID=e311cf0e
DTITLE=Various Artist - Elektrisch! 3 (Disc02)
DYEAR=2008
DGENRE=Electronic
TTITLE0=Mind.In.A.Box - What Used To Be (Peter Rainmans Turning Point 
TTITLE0=Mix)
TTITLE1=Diary Of Dreams - The Plague (Ver.N4-4)
TTITLE2=Edge Of Dawn - Pray For Love (Remix)
TTITLE3=Obscenity Trial - My Mind Your Mind (Darkstar Music Club Mix)
TTITLE4=Don Juan Dracula - Take Me Home (Emmon Remix)
TTITLE5=Universal Poplab - Soma Generation (Menichal Servants Remix)
TTITLE6=Janosch Moldau - Sweetest Heart (People Theatre Presence Mix)
TTITLE7=Thermostatic - The Box (Tigerbaby Extended Mix)
TTITLE8=Syrian Feat. Marian Gold - Supernova (Extended Version)
TTITLE9=The Promise - Hold On (Club Mix)
TTITLE10=Jaw - Creature Of Masquerade (Apoptygma Berzerk Remix)
TTITLE11=Mechanical Cabaret - See Her Smile (Radiophonic Extended Mix)
TTITLE12=Emmon - Frenzy Eyes (Emmon Remix)
TTITLE13=Ultima Bleep - Back (Club Remix)
EXTD=
EXTT0=
EXTT1=
EXTT2=
EXTT3=
EXTT4=
EXTT5=
EXTT6=
EXTT7=
EXTT8=
EXTT9=
EXTT10=
EXTT11=
EXTT12=
EXTT13=
PLAYORDER=
